<?xml version="1.0" standalone="no"?><!DOCTYPE svg PUBLIC "-//W3C//DTD SVG 1.1//EN" "http://www.w3.org/Graphics/SVG/1.1/DTD/svg11.dtd"><svg t="1761551920451" class="icon" viewBox="0 0 1024 1024" version="1.1" xmlns="http://www.w3.org/2000/svg" p-id="11178" xmlns:xlink="http://www.w3.org/1999/xlink" width="24" height="24"><path d="M318.57 223.95l322.99 322.99c21.87 21.87 57.33 21.87 79.2 0 21.87-21.87 21.87-57.33 0-79.2l-323-322.99c-21.87-21.87-57.33-21.87-79.2 0-21.86 21.87-21.86 57.33 0.01 79.2z" fill="#103947" p-id="11179"></path><path d="M729.75 555.95L406.76 878.93c-21.87 21.87-57.33 21.87-79.2 0-21.87-21.87-21.87-57.33 0-79.2l322.99-322.99c21.87-21.87 57.33-21.87 79.2 0 21.87 21.88 21.87 57.34 0 79.21z" fill="#103947" p-id="11180"></path></svg>